<?xml version="1.0" encoding="UTF-8"?>
<svg width="512" height="512" viewBox="0 0 512 512" xmlns="http://www.w3.org/2000/svg">
  <!-- Gradient Definitions -->
  <defs>
    <linearGradient id="foxGradient" x1="0%" y1="0%" x2="100%" y2="100%">
      <stop offset="0%" stop-color="#f58c44"/>
      <stop offset="100%" stop-color="#ea7016"/>
    </linearGradient>
  </defs>

  <!-- Circular Face -->
  <circle cx="256" cy="256" r="240" fill="url(#foxGradient)"/>

  <!-- Ears -->
  <polygon points="136,116 176,56 216,116" fill="#ea7016"/>
  <polygon points="376,116 336,56 296,116" fill="#ea7016"/>
  
  <!-- Inner Ears -->
  <polygon points="146,116 176,76 206,116" fill="#ffe0d0"/>
  <polygon points="366,116 336,76 306,116" fill="#ffe0d0"/>

  <!-- White face patch -->
  <path d="M136,256 C176,360 336,360 376,256 
           Q256,380 136,256"
        fill="#fff"/>

  <!-- Eyes -->
  <circle cx="206" cy="226" r="18" fill="#000"/>
  <circle cx="306" cy="226" r="18" fill="#000"/>

  <!-- Nose -->
  <ellipse cx="256" cy="286" rx="14" ry="10" fill="#333"/>

  <!-- Mouth -->
  <path d="M236,310 Q256,330 276,310" fill="none" stroke="#333" stroke-width="3"/>
</svg>
